<?xml version="1.0" encoding="utf-8"?>
<!-- Generator: Adobe Illustrator 21.0.2, SVG Export Plug-In . SVG Version: 6.00 Build 0)  -->
<svg version="1.1" xmlns="http://www.w3.org/2000/svg" xmlns:xlink="http://www.w3.org/1999/xlink" x="0px" y="0px"
	 viewBox="0 0 302.1 113.2" style="enable-background:new 0 0 302.1 113.2;" xml:space="preserve">
<style type="text/css">
	.st0{fill:#0075C9;}
	.st1{display:none;}
	.st2{display:inline;fill:#231F20;}
	.st3{display:inline;}
	.st4{fill:#231F20;}
</style>
<g id="Layer_1">
	<path class="st0" d="M4.9,108.3h292.3V4.9H4.9V108.3z M302.1,113.2H0V0h302.1V113.2z"/>
	<g>
		<path class="st0" d="M247,56.5V44h9.5c4.8,0,7.7,2.2,7.7,6.1v0.1c0,3.8-3,6.2-7.6,6.2H247z M240.5,75.1h6.5V62.2h8.1l9.1,12.9h7.7
			l-10-14c5.1-1.5,8.8-5.1,8.8-11.2v-0.1c0-3.2-1.1-6-3.1-8c-2.4-2.3-6-3.7-10.7-3.7h-16.5V75.1z M201.1,75.1h27.7v-5.8h-21.2v-9.9
			h18.6v-5.8h-18.6v-9.6h21v-5.8h-27.5V75.1z M183.2,64.2v0.1c0,3.3-2.7,5.1-7.1,5.1h-10.8V59.2h10.3
			C180.7,59.2,183.2,61.1,183.2,64.2 M181.2,48.7c0,3.4-2.8,5-7,5h-8.9v-9.8h9.4c4.2,0,6.5,1.8,6.5,4.7V48.7z M158.9,75.1H176
			c8.3,0,13.7-3.5,13.7-10.2v-0.1c0-5-3-7.5-7.4-9c2.8-1.4,5.3-3.8,5.3-8.3v-0.1c0-2.5-0.8-4.5-2.5-6.1c-2.1-2.1-5.5-3.3-9.7-3.3
			h-16.6V75.1z M123.2,56.5V44h9.5c4.8,0,7.7,2.2,7.7,6.1v0.1c0,3.8-3,6.2-7.6,6.2H123.2z M116.7,75.1h6.5V62.2h8.1l9.1,12.9h7.7
			l-10-14c5.1-1.5,8.8-5.1,8.8-11.2v-0.1c0-3.2-1.1-6-3.1-8c-2.4-2.3-6-3.7-10.7-3.7h-16.5V75.1z M77.2,75.1H105v-5.8H83.7v-9.9
			h18.6v-5.8H83.7v-9.6h21v-5.8H77.2V75.1z M49.3,75.8c6.6,0,11.8-2.6,15.5-5.8V54.4H49v5.7h9.5V67c-2.3,1.7-5.5,2.8-8.9,2.8
			C42,69.8,37,64.2,37,56.6v-0.1c0-7.1,5.2-13.1,12-13.1c4.7,0,7.5,1.5,10.4,4l4.1-4.9c-3.8-3.2-7.8-5-14.2-5
			c-11.2,0-19.1,8.8-19.1,19.2v0.1C30.1,67.5,37.7,75.8,49.3,75.8"/>
	</g>
</g>
<g id="Layer_2" class="st1">
	<path class="st2" d="M5.9,108.5h292.3V5.1H5.9V108.5z M303.1,113.4H0.9V0.2h302.1V113.4z"/>
	<g class="st3">
		<path class="st4" d="M247.9,56.6V44.2h9.5c4.8,0,7.7,2.2,7.7,6.1v0.1c0,3.8-3,6.2-7.6,6.2H247.9z M241.4,75.3h6.5V62.4h8.1
			l9.1,12.9h7.7l-10-14c5.1-1.5,8.8-5.1,8.8-11.2V50c0-3.2-1.1-6-3.1-8c-2.4-2.3-6-3.7-10.7-3.7h-16.5V75.3z M202,75.3h27.7v-5.8
			h-21.2v-9.9h18.6v-5.8h-18.6v-9.6h21v-5.8H202V75.3z M184.2,64.4v0.1c0,3.3-2.7,5.1-7.1,5.1h-10.8V59.4h10.3
			C181.7,59.4,184.2,61.2,184.2,64.4 M182.1,48.9c0,3.4-2.8,5-7,5h-8.9V44h9.4c4.2,0,6.5,1.8,6.5,4.7V48.9z M159.8,75.3H177
			c8.3,0,13.7-3.5,13.7-10.2v-0.1c0-5-3-7.5-7.4-9c2.8-1.4,5.3-3.8,5.3-8.3v-0.1c0-2.5-0.8-4.5-2.5-6.1c-2.1-2.1-5.5-3.3-9.7-3.3
			h-16.6V75.3z M124.1,56.6V44.2h9.5c4.8,0,7.7,2.2,7.7,6.1v0.1c0,3.8-3,6.2-7.6,6.2H124.1z M117.6,75.3h6.5V62.4h8.1l9.1,12.9h7.7
			l-10-14c5.1-1.5,8.8-5.1,8.8-11.2V50c0-3.2-1.1-6-3.1-8c-2.4-2.3-6-3.7-10.7-3.7h-16.5V75.3z M78.2,75.3h27.7v-5.8H84.7v-9.9h18.6
			v-5.8H84.7v-9.6h21v-5.8H78.2V75.3z M50.3,76c6.6,0,11.8-2.6,15.5-5.8V54.6H50v5.7h9.5v6.9C57.2,68.9,54,70,50.5,70
			c-7.6,0-12.6-5.6-12.6-13.2v-0.1c0-7.1,5.2-13.1,12-13.1c4.7,0,7.5,1.5,10.4,4l4.1-4.9c-3.8-3.2-7.8-5-14.2-5
			c-11.2,0-19.1,8.8-19.1,19.2v0.1C31.1,67.7,38.7,76,50.3,76"/>
	</g>
</g>
</svg>
