<?xml version="1.0" encoding="utf-8"?>
<!-- Generator: Adobe Illustrator 24.2.3, SVG Export Plug-In . SVG Version: 6.00 Build 0)  -->
<svg version="1.1" id="Capa_2" xmlns="http://www.w3.org/2000/svg" xmlns:xlink="http://www.w3.org/1999/xlink" x="0px" y="0px"
	 viewBox="0 0 1366 768" style="enable-background:new 0 0 1366 768;" xml:space="preserve">
<style type="text/css">
	.st0{opacity:0.2;fill:#161112;}
	.st1{fill:#FFFFFF;}
	.st2{enable-background:new    ;}
	.st3{fill:#E1251B;}
	.st4{fill:#1D8649;}
	.st5{fill:#070707;}
	.st6{opacity:0.3;enable-background:new    ;}
	.st7{fill:#161112;}
</style>
<g>
	<path class="st0" d="M1272.3,319.3c-3-32.2-18.1-53.4-40.9-58.1c-3.3-3.4-6.7-6.4-10.2-9c1.2-9.9,3.1-14.4,3.7-15.4
		c4.8-6.1,6.2-14.1,3.9-21.9c-4.9-16.8-25.8-30.5-60.4-39.5c-64.1-23-140.5,7.2-196.3,29.3l-2.8,1.1c-25.6,10.1-57.6,1.4-85.8-6.2
		l-3.4-0.9c-11.2-3-22.1-6.4-32.3-9.6c-1.4-0.4-2.9-0.6-4.3-0.5c-4.3-1.2-8.7-2.4-13-3.5c-17-4.6-34.5-9.5-52-13.2
		c-15.5-3.3-31.2-5.8-46.7-7.3c1-9.4-1.5-19.2-7.5-27c-9.9-13-32.5-21.8-44.4-22.9c-12.8-1.1-25.2,5.1-32.4,16.3
		c-1.5,2.4-3,4.8-4.4,7.5c-5.6-2-10.6-2.5-13.9-2.5c-1.4,0-2.8,0.1-4.1,0.2c-4.3,0.4-9.1,1.4-16,2.9c-10.4,2.2-24.5,5.2-41.1,6.9
		c-6,0.6-7.3,0.6-9.2,0.5c-16.5-1-31.2,9.9-35.9,26.4c-1.5,5.2-2.8,13.5-2,20.8c0.1,0.7,0.1,1.4,0.2,2.1
		c-21.9-0.9-41.6-9.6-62.2-18.6c-14-6.2-28.5-12.5-44.3-16.8c-4.6-1.2-8.9-2.4-13-3.6c-30.7-8.5-49.2-13.6-86.6-8.6
		c-25.2,3.4-48.1,22.9-60.2,50.7c-3.5,0.7-7.2,2.7-10.6,6.5c-0.1,0-0.1,0.1-0.2,0.1c-0.3,0.1-0.6,0.3-0.9,0.4
		c-2.5-0.9-5.2-1.4-7.8-1.4c-0.5,0-1.6,0-1.9,0.1c-4.1,0.4-8.2,1.7-12,3.8c-1.9-0.5-3.8-0.7-5.8-0.7c-0.7,0-2.3,0.1-2.9,0.2
		c-0.5,0.1-1,0.1-1.5,0.2c-1.6-0.4-3.1-0.7-4.3-0.8c-4.5-4.7-10.2-7.8-16-8.4c-2.3-2.3-7.3-7.2-14.6-6c-5.4,0.8-12.3,4.1-14.9,15.2
		c-4.7,4.3-5.4,11.4-6.1,19.9c-0.3,3.7-1.3,15.1,5.9,23.4c5.3,6.1,13.5,8.9,23.5,7.5c4.3-0.6,8-2.3,11.1-4.5c0.5,1.2,1.2,2.4,2,3.4
		c4.4,8.2,13.2,12.3,25.7,12.1l0.7,0c0.5,0,1.7-0.1,2.7-0.2l0.4,0c2.2-0.2,4.4-0.6,6.5-1.4l-7.3,24.5c-28.2,32-52.7,86.5-75,140.7
		c-44.1,107-42.1,128-41.1,139.3c1.1,11.4,5.9,26.2,21.6,37.1l-8,26.8c-0.1,0.5-0.3,1-0.4,1.5c-2.1,11.3,1.9,22.6,10.2,28.8
		c7,5.2,15.8,5.7,23.2,1.3c78.6-47.1,214.8-33.7,307.6-7.9l5.3,1.5c0.1,0,0.2,0,0.2,0.1c18.1,5,39.9,11.1,62.5,11.1
		c4,0,8-0.2,12.1-0.6c28.7-3,54.5-16.9,79.6-30.4c15.5-8.4,31.6-17,47.7-22.7c37.2-13,77.8-11.7,119.6-9c4.4,0.3,8.8,0.6,13.2,0.9
		L973,622.5c3.4,0.2,6.7,0.3,10,0.3c26,0,49.5-6.9,76-17.3c19.4-7.6,35.4-18.4,47.3-26.9c12.6-9,24-18.6,35-27.9
		c12.7-10.6,24.6-20.7,37.1-28.9c3-1.4,5.5-3.4,7.8-5.5c1.4-0.5,2.7-1.2,3.9-2.1c0.9-0.6,4.1-2,6.2-2.9c8.2-3.5,30-12.8,23-32.4
		c-0.3-1.3-2.9-11.9,0.8-30.1c0.3-1.7,0.7-3.5,1-5.4C1257.2,414.2,1276.8,367.2,1272.3,319.3z M1224,237.8c0.1-0.1,0.2-0.2,0.3-0.3
		c0,0,0.1-0.1,0.1-0.1C1224.4,237.4,1223.8,238,1224,237.8z"/>
	<path class="st1" d="M1254.9,301.3c-3-32.2-18.1-53.4-40.9-58.1c-3.3-3.4-6.7-6.4-10.2-9c1.2-9.9,3.1-14.4,3.7-15.4
		c4.8-6.1,6.2-14.1,3.9-21.9c-4.9-16.8-25.8-30.5-60.4-39.5c-64.1-23-140.5,7.2-196.3,29.3l-2.8,1.1c-25.6,10.1-57.6,1.4-85.8-6.2
		l-3.4-0.9c-11.2-3-22.1-6.4-32.3-9.6c-1.4-0.4-2.9-0.6-4.3-0.5c-4.3-1.2-8.7-2.4-13-3.5c-17-4.6-34.5-9.5-52-13.2
		c-15.5-3.3-31.2-5.8-46.7-7.3c1-9.4-1.5-19.2-7.5-27c-9.9-13-32.5-21.8-44.4-22.9c-12.8-1.1-25.2,5.1-32.4,16.3
		c-1.5,2.4-3,4.8-4.4,7.5c-5.6-2-10.6-2.5-13.9-2.5c-1.4,0-2.8,0.1-4.1,0.2c-4.3,0.4-9.1,1.4-16,2.9c-10.4,2.2-24.5,5.2-41.1,6.9
		c-6,0.6-7.3,0.6-9.2,0.5c-16.5-1-31.2,9.9-35.9,26.4c-1.5,5.2-2.8,13.5-2,20.8c0.1,0.7,0.1,1.4,0.2,2.1
		c-21.9-0.9-41.6-9.6-62.2-18.6c-14-6.2-28.5-12.5-44.3-16.8c-4.6-1.2-8.9-2.4-13-3.6c-30.7-8.5-49.2-13.6-86.6-8.6
		c-25.2,3.4-48.1,22.9-60.2,50.7c-3.5,0.7-7.2,2.7-10.6,6.5c-0.1,0-0.1,0.1-0.2,0.1c-0.3,0.1-0.6,0.3-0.9,0.4
		c-2.5-0.9-5.2-1.4-7.8-1.4c-0.5,0-1.6,0-1.9,0.1c-4.1,0.4-8.2,1.7-12,3.8c-1.9-0.5-3.8-0.7-5.8-0.7c-0.7,0-2.3,0.1-2.9,0.2
		c-0.5,0.1-1,0.1-1.5,0.2c-1.6-0.4-3.1-0.7-4.3-0.8c-4.5-4.7-10.2-7.8-16-8.4c-2.3-2.3-7.3-7.2-14.6-6c-5.4,0.8-12.3,4.1-14.9,15.2
		c-4.7,4.3-5.4,11.4-6.1,19.9c-0.3,3.7-1.3,15.1,5.9,23.4c5.3,6.1,13.5,8.9,23.5,7.5c4.3-0.6,8-2.3,11.1-4.5c0.5,1.2,1.2,2.4,2,3.4
		c4.4,8.2,13.2,12.3,25.7,12.1l0.7,0c0.5,0,1.7-0.1,2.7-0.2l0.4,0c2.2-0.2,4.4-0.6,6.5-1.4l-7.3,24.5c-28.2,32-52.7,86.5-75,140.7
		c-44.1,107-42.1,128-41.1,139.3c1.1,11.4,5.9,26.2,21.6,37.1l-8,26.8c-0.1,0.5-0.3,1-0.4,1.5c-2.1,11.3,1.9,22.6,10.2,28.8
		c7,5.2,15.8,5.7,23.2,1.3c78.6-47.1,214.8-33.7,307.6-7.9l5.3,1.5c0.1,0,0.2,0,0.2,0.1c18.1,5,39.9,11.1,62.5,11.1
		c4,0,8-0.2,12.1-0.6c28.7-3,54.5-16.9,79.6-30.4c15.5-8.4,31.6-17,47.7-22.7c37.2-13,77.8-11.7,119.6-9c4.4,0.3,8.8,0.6,13.2,0.9
		l168.4,11.5c3.4,0.2,6.7,0.3,10,0.3c26,0,49.5-6.9,76-17.3c19.4-7.6,35.4-18.4,47.3-26.9c12.6-9,24-18.6,35-27.9
		c12.7-10.6,24.6-20.7,37.1-28.9c3-1.4,5.5-3.4,7.8-5.5c1.4-0.5,2.7-1.2,3.9-2.1c0.9-0.6,4.1-2,6.2-2.9c8.2-3.5,30-12.8,23-32.4
		c-0.3-1.3-2.9-11.9,0.8-30.1c0.3-1.7,0.7-3.5,1-5.4C1239.9,396.2,1259.5,349.2,1254.9,301.3z M1206.7,219.7
		c0.1-0.1,0.2-0.2,0.3-0.3c0,0,0.1-0.1,0.1-0.1C1207.1,219.3,1206.5,220,1206.7,219.7z"/>
	<g class="st2">
		<g>
			<path class="st3" d="M1188.9,459.1c3.8,10-18.3,14.1-24.5,19.2c-0.8,0.2-1.8,0.6-2.8,1c-2.4,2.4-4.7,4.4-7,5.3
				c-24.6,15.9-46.7,38.4-73.5,57.7c-13.4,9.6-27.7,18.8-44.4,25.3c-26.7,10.4-51.4,18-80.3,16c-56.6-3.9-112.8-7.7-168.4-11.5
				c-4.4-0.3-8.8-0.6-13.3-0.9c16.3-129.8,36.5-281.7,51.4-393.1c10.9,3.4,21.8,6.8,32.8,9.7c30.8,8.3,66.7,18.9,97.5,6.7
				c55.8-22.1,129.9-52.2,190.4-30.1c46.9,12.2,56.9,30.5,49.5,39.2c0,0-6.1,7.5-7.1,33.2c-0.8,22.4,5.6,51.9,4.6,86.9
				c-1,35,0.7,70.2-4.8,97.5C1184.3,445.7,1188.9,459.1,1188.9,459.1"/>
			<path class="st4" d="M526.4,183.8c-51.5,9.8-87.7-22.1-132.9-34.2c-38.8-10.4-55-17.1-94.5-11.8c-26.8,3.6-49.5,29.6-55.8,62.9
				L119.5,616.2c-1.9,10.3,5.9,19.3,13.2,15c82.5-49.4,222.7-35.8,317.9-9.3c1.8,0.5,3.5,1,5.3,1.5
				c21.8-119.2,55.9-304.5,81.7-442.3C533.9,182.1,530.1,183.1,526.4,183.8"/>
			<path class="st1" d="M758.1,161.3c-61.1-13.1-124.1-12.6-182.5,6.8c-12.8,4.2-25.3,9.3-38,12.9
				c-25.8,137.8-59.9,323.1-81.7,442.3c22.8,6.4,46.2,12.6,69.9,10.1c43.3-4.5,81.2-37.3,124.3-52.4c39.3-13.7,81.9-12.4,124.7-9.7
				c16-128,36-279.8,51-392.6C803.1,172.7,780.7,166.2,758.1,161.3"/>
			<path class="st1" d="M476.3,208.3c-0.2-2.2-1.3-4.1-3.3-5.7c0,0-0.1-0.1-0.1-0.1c2.7-3.6,4.4-7.9,2.6-12.5
				c-1.7-4.5-7.2-7.5-11.2-7.6c-2.5-0.1-5,0.5-7.4,1.7c0-0.2,0-0.3,0-0.5c-0.2-2.2-1.4-4.3-3.4-5.6c-0.1,0-6.6-3.9-11.4-2.6
				c-3.7,1.1-5,3.9-6.8,7.9c-0.1,0.3-0.3,0.7-0.5,1.1c-1.8-0.1-3.7,0.3-5.5,1.7c-0.9-0.3-1.9-0.4-3-0.4c-2.1,0.1-4,0.7-5.8,1.8
				c-0.8-0.9-1.5-1.6-2-2c-2.5-2.2-5-3.2-7.4-3c-1.8,0.1-3.8,0.3-6.4,4.4c-2.4-2.1-5.5-3.3-8.1-3.5c-4.2-0.2-8.5,1.7-12.2,5.3
				c-2.2-1.9-5.1-3-7.9-3c-2.2,0.1-4.2,0.9-6.4,2.6c-2.6-1.5-5.7-2-7.1-2c-1.4,0-2.8,0.3-4.1,1c-1.4-1.2-3.1-2.1-4.6-2.8
				c-1.1-0.5-4.5-1.9-7.9-0.2c-1.6,0.8-3.1,2.6-4.3,4.9c-1.5-0.8-3.6-1.7-5.8-1.8c-1.6-1.4-3.6-2.5-5.8-2.7
				c-2.2-0.2-5.6,0.3-9.2,3.5c-2.9-3.3-7.1-6.3-10.5-6.3h0c-3.1,0-6.2,1.6-8.7,4.3c-0.9,1-1.8,2.3-2.6,3.8c-1.1-0.7-2.2-1.2-3.2-1.4
				c-1.3-1.6-3-3.2-5.6-3.8c-1.1-0.2-2.1-0.2-3.1-0.1c1.7-3.6,2.8-6.2,2.7-8.9c-0.1-4.1-3.3-6.1-4.5-6.9c-6.7-4.2-9.8-3.8-12.1-2.7
				c-0.8,0.4-1.7,0.8-2.7,1.8c-5.3-2.9-8-2.5-10.1-1.5c-2.4,1.2-5.6,2.7-10.5,22c-2.5-0.9-6.2-1.7-9.3,0c-1.9-0.9-6.7-2.7-10.4-1.2
				c-1.9,0.8-3.5,2.4-4.9,4.3c-1.9-2.1-5.3-4.6-9.7-4.2c-4.1,0.4-8.1,2.4-11.7,5.8c-2.3-2.3-5.9-2.8-8.5-2.6c-1.2,0.2-2.3,0.5-3.3,1
				c-4-1.8-7.4-2.1-10.1-0.8c0,0,0,0-0.1,0c-2.7-5.6-7.3-8.3-9.9-9c-1.1-0.3-2.1-0.3-3.2-0.2c-3-1.7-5.8-2.7-5.8-2.7
				c-2.1-0.6-4.2-0.7-6.3-0.4c-3.4,0.5-8.3,2.3-12.4,8.4c-6,8.7-8.3,23.7-5.5,35.5c2,8.5,7.8,17,18.3,17c0.9,0,1.9-0.1,2.9-0.2
				c6.2-0.9,12.2-4.7,16.6-10.4c3,3,7.7,4.1,7.8,4.1c0.7,0.1,1.3,0.2,1.9,0.2c2.9,0,4.7-1.6,5.4-2.3c1.7-1.8,2.6-4.3,4.4-10.6
				c1.2,2.9,3.2,5.5,5.6,7.1c0.1,0.1,0.2,0.1,0.3,0.2c-0.8,1.6-1.5,2.9-2.1,3.8c-1.1-0.5-2.6-0.9-4.3-0.7c-0.1,0-0.2,0-0.3,0
				c-1.3,0.2-3.9,1-5.5,4c-1.3,2.4-1.5,5-0.6,7.3c2.3,5.4,10,7.7,15.2,7.7c0.4,0,0.8,0,1.2,0c4.3-0.4,10.3-3,13.7-8.3
				c3-4.5,4.7-9.2,6.1-14.8c2.2,1.2,4.7,1.9,7,1.9c0.3,0,0.7,0,1,0c2.5-0.2,4.5-1.7,5.9-3.1c2.5,1.2,5.8,2.2,8.2,2.1
				c0.7,0,1.5-0.2,2.1-0.5c0.4-0.1,0.7-0.3,1-0.5c2.3,2.9,6.3,3.6,7.6,3.6h0.1c2.3,0,4.5-1.1,5.9-2.9c2.2,1.8,5.1,2.4,6.1,2.4
				c0.1,0,0.2,0,0.3,0c2.1,0,4.1-0.9,5.5-2.4l0,0c0.1-0.1,0.3-0.3,0.4-0.4c0.1-0.1,0.2-0.3,0.3-0.4l0,0c0.2-0.4,0.4-0.7,0.6-1.1
				c2,1.2,4.2,1.9,6.4,1.9c0.3,0,0.7,0,1,0c2.5-0.2,4.9-1,7.1-2.3c2.5,3.2,6.7,5.6,10.5,5.6c0.1,0,0.2,0,0.3,0
				c4.4-0.2,8.3-2,11.1-5.3c0.6-0.7,1.2-1.5,1.7-2.4c2,1.8,4.5,2.8,7.1,2.8c0.3,0,0.5,0,0.8,0c1.5-0.1,3.1-0.5,5.1-2.1
				c1.9,1.3,4.1,1.8,6.1,1.8c0.1,0,3.3-0.1,6.2-1.6c1.4,1,3,1.7,5,1.7c3,0,4.7-1.4,6.3-3.4c1,1,1.9,1.6,2.2,1.8
				c2.8,1.9,5.3,1.7,6.9,1.2c0,0,0,0,0.1,0c1.6-0.5,2.8-1.2,4.4-3.2c2.2,2.3,5.3,3.6,8.9,3.5c2-0.1,5.1-0.8,7.5-2.5
				c2.5,1.8,5.4,2.9,8.5,2.9c0.3,0,0.6,0,0.9,0c2.7-0.2,5.5-1.7,7.8-3.3c1.6,2,3.9,3.7,7,3.7c0,0,0.1,0,0.1,0c4-0.1,6-2.7,8.3-6.4
				c2.6,3,6.4,4.1,9.8,4c1.8,0,4.6-0.9,7-2.5c3,2.5,6.9,4,10.5,4c0.2,0,0.4,0,0.6,0c1.9-0.1,4.8-1.5,7.4-3.5
				c2.4,1.7,5.3,2.8,8.3,2.8c0.3,0,0.6,0,0.9,0c6.5-0.5,13.5-8.4,13.5-8.5C474.2,215,476.6,212.1,476.3,208.3z M251.3,226.7
				C251.3,226.7,251.3,226.7,251.3,226.7C251.3,226.7,251.3,226.7,251.3,226.7C251.3,226.7,251.3,226.7,251.3,226.7z"/>
			<path class="st5" d="M1241.9,296.3c-1.1-11.6-4-28.2-16.3-38.3c-5.1-4.2-11.1-6.7-17.6-7.4c-6.8-7.8-13.8-13.2-21.1-16.3
				c-3.4-1.4-7.2-2-10.9-1.6c-13.6,1.4-27.6,8.6-40.3,20.7c-6.9,6.5-13.1,14-18.6,22.1c-10.1-12.4-23.4-18.6-37.4-17.2
				c-12.6,1.3-24.5,8.7-35.9,19.3c-8.8-15.4-22.7-26.8-37.1-29.9c-5.5-1.2-11.3-0.2-16.1,2.7c-5.6,3.4-10.1,8.6-18.2,26.6
				c-2.1,4.6-4.7,10.9-7.7,18.9c-1.3-2.1-3-4.1-5-5.8c-8.5-7.5-24.8-12.5-37-11.2c-0.4,0-0.9,0.1-1.3,0.2
				c-7.6-6.6-16.5-11.3-23.9-12.5c-2.4-0.4-4.8-0.4-7.1,0c-11.8,1.9-23.4,8.5-34.5,19.4c-5.1,5.1-10.1,11.1-14.7,17.8
				c-3.6-10.2-9.4-16.9-14.4-20.9c-7.1-5.9-19.8-12.4-39.4-10.4c0,0,0,0,0,0c-18.1,1.9-35.8,10.4-50.7,24.1
				c5.4-8.6,12-18.5,15.6-22.7c6.8-8,7-19.7,0.5-28c-10.1-12.8-37.5-27-55.1-25.1c-9.1,0.9-16.7,7.4-19.1,16.2
				c-4,14.6-6.7,36.4-5.7,46.6c0.3,3.8,1.5,8.5,3.8,13.2c0,0.4,0,0.8,0.1,1.1c0,0.1,0,0.1,0,0.2c0.1,0.9,0.2,1.9,0.4,2.8
				c-1.9,0.6-3.7,1.5-5.4,2.6c-1.6,1.1-3.1,2.2-4.6,3.5c-2.4-4-5.6-7.1-9.1-9.6c1.8-4.2,2.3-8.9,1.3-13.4c0-0.4-0.1-1-0.2-1.9
				l-0.1-0.6c-0.5-5.7-0.9-23,7.8-58.9c7.4-30.5,16.8-53.4,30.7-74.4c5.2-7.9,4.8-18.2-0.9-25.7c-7.1-9.4-26.1-16.9-35.4-17.7
				c-8.2-0.8-16.2,3.2-20.7,10.1c-3.3,5.2-6.5,11.3-9.7,18.4c-6.4-5.4-14.3-7.9-22.3-7.1c-3.7,0.4-8.3,1.3-14.7,2.7
				c-10.6,2.2-25.2,5.3-42.4,7.1c-6.4,0.7-8.6,0.7-11.1,0.5c-10.4-0.6-19.8,6.1-22.6,16.1c-1,3.5-2,9.6-1.5,15
				c0.9,9,5,16.6,11.2,21.9c-0.6,3.1-1.4,6.5-2.4,10.3c-6.2,2.8-10,5.4-13.1,9.3c-5.2,6.7-6.2,15.8-2.4,23.4
				c1.4,2.8,3.1,5.4,5.1,7.7c-6.2,23-9.7,34-11.3,38.8c-2.4,6.9-1.2,14.5,3.1,20.4c2.2,3,4.4,5.7,6.7,8.1
				c-5.6-2.4-11.4-3.7-17.3-3.9c-1,0-2.1,0-3.1,0.1c-24.3,2.5-48.4,20.6-66.1,49.7c-2.4,3.9-4.6,7.9-6.6,11.9
				c3.6-28.6,9.1-54.5,16.7-72.8c2.2-5.2,2.3-11,0.3-16.3c-3.8-10.2-13.6-17.1-33.8-23.9c-8.6-2.9-24.8-7.6-36.7-6.4
				c-4.8,0.5-9.2,2.5-12.8,5.8c-11.1,10.3-24.4,29.7-38,53.8c0.2-0.6,0.4-1.2,0.6-1.7c1.7-4.9,1.7-10.2-0.1-15.1
				c-3.8-10.2-13.6-17.1-33.8-23.9c-8.6-2.9-24.8-7.6-36.7-6.4c-3.9,0.4-7.7,1.9-10.9,4.2c-22.9,16.9-46.8,49.3-89.2,152.3
				c-37.8,91.6-41.2,118.4-39.9,131.6c2.7,28.6,32.4,34.6,46.7,37.5c1.5,0.3,2.9,0.4,4.4,0.4c5.1,0,10.1-1.8,14.1-5
				c5.1-4.2,8.1-10.5,8.1-17.2c-0.1-36.6,14.4-86.2,31.9-129.7c-1.6,31-1,60.6,1.7,89.3l0.1,0.7c0.6,6.4,1.3,13.1,2.2,19.7
				c0.3,2.4,1.1,4.7,2.2,6.9c2.8,5.4,8.8,13.3,29,19.2c5.3,1.5,18.8,4.9,30.6,3.7c3.4-0.3,6.5-0.7,10.8-2.6
				c8-3.7,13.1-11.9,12.9-20.7c-0.9-33.5,9.9-83.2,28.7-133c1.1-2.9,2.2-5.8,3.3-8.6c-2.5,35.8-2.1,69.7,0.9,102.4
				c0.6,7,1.3,13.8,2.3,20.4c0.5,3.7,2,7.3,4.3,10.3c13.6,17.7,49.7,19.9,61.3,18.8c6-0.6,11.5-3.7,15.2-8.5
				c3.7-4.8,5.3-10.9,4.4-16.9c-1.7-11.5-2.7-22.4-3.6-32c-0.9-9.7-1.6-20.2-1.9-31.1c11.6,17.6,31.5,28.4,55.6,28.7
				c0.1,0,0.2,0,0.2,0c2.4,0,4.9-0.4,7.2-1.2c9.7-3.3,19.6-9.3,29.1-17.4c5,7.8,12.9,13.1,22.1,14.2c0.9,0.1,1.7,0.2,2.6,0.2
				c4.8,0,9.5-1.6,13.4-4.5c10.6-8.1,22-18.1,33.2-29.3c4.4,6.1,8.9,11.5,13.2,15.9c5.1,5.2,12.5,7.5,19.7,6.3
				c13.5-2.4,30.1-11.5,37-26.3c1.2,1.2,2.4,2.3,3.7,3.4c7,5.8,18,11.2,27.5,11.2c0.8,0,1.6,0,2.4-0.1c9.8-1,20.6-8.7,21.2-23.4
				c0.1-2.9-0.1-5.9-0.5-10c-0.1-3.4,1-10,3.3-19.5c11.9,27.8,36.6,46.9,64.2,46.9c0.2,0,0.3,0,0.5,0c2.1,0,4.1-0.3,6.1-0.9
				c14.3-4.2,31.5-18.2,44.4-32.9c8.6,14,22.1,22.6,37.5,22.6c0.8,0,1.7,0,2.5-0.1c1.5-0.1,3.1-0.3,4.5-0.8
				c9.4-2.6,18.4-8.9,26.7-17.5c1.2,1.4,2.5,2.6,3.9,3.8c5.1,4.2,13.7,8.8,26.5,7.5c9.7-1,21.6-5.9,29.1-11.8
				c0.2-0.2,0.4-0.3,0.6-0.5c4.4,5.8,9.8,10.2,16.1,13.1c3,1.4,6.2,2.1,9.4,2.1c4.6,0,9.2-1.4,13.1-4.3c8.2-6,13.6-16,22.7-32.5
				c3.7-6.6,7.2-12.7,10.8-18.5c2.2,8,6.5,17.5,15.1,24.6c9.4,7.7,21.5,10.9,35.9,9.4c13.1-1.3,27.3-11.8,34.9-19.4
				c10.7,11.5,25.3,18.2,42.1,18.3h0.1c2.4,0,4.7-0.4,7-1.1c25.9-8.6,48.3-26.4,63.1-50.2C1237.9,352.9,1244.5,324.4,1241.9,296.3z
				 M611.6,185.9c0.4,0,0.8-0.1,1.3-0.1c-0.7,2.4-1.3,5-2,7.5c-0.8-0.8-1.7-1.6-2.5-2.3c-1.8-1.5-3.8-2.7-5.8-3.8
				C605.5,186.7,608.5,186.3,611.6,185.9z M576.2,247.1c4.5-1.2,8.9-2.2,12.8-2.6c3-0.3,5.3-0.4,7.2-0.2c1.3,0.1,2.7,0.1,3.9,0
				c-0.2,1.5-0.4,3-0.5,4.4c-0.6,0.1-1.1,0.1-1.7,0.2c-7.8,1.4-15.6,3-23.5,4.9C574.9,251.6,575.5,249.4,576.2,247.1z M542,417.1
				c-0.9-1.7-2.1-3.3-3.5-4.7c-2.4-2.5-4.9-4.6-8-6.9c-1.3-0.9-2.6-1.7-3.9-2.3c4.9-7.4,8.7-15.3,11.3-23.9
				c3.6,9.5,7.8,19.3,12.3,28.8C547.7,411.1,544.9,414.1,542,417.1z M600.1,311.9c2-0.2,3.9-0.3,5.7-0.5c-0.8,2.3-1.6,4.5-2.3,6.7
				C602.6,315.9,601.5,313.8,600.1,311.9z M637.6,390.9c-1.1,11.5-1.8,19.4-2,25.2c-2.4-4.2-4.8-8.4-7-12.6
				C631.5,399.6,634.5,395.4,637.6,390.9z M796.3,382c-7.3,7-14.6,12.5-20.8,16.5c-0.9-10,0-19.8,2.6-29.2
				c6.1,5.6,13.7,9.2,21.4,10.1C798.5,380.2,797.4,381.1,796.3,382z M1166,354.5c2.1-8.8,5.7-18.8,10.4-27.5
				C1174.5,337.4,1170.9,346.8,1166,354.5z"/>
			<g class="st6">
				<g>
					<path class="st7" d="M563.5,334.5l1.7,0.5l1.7-0.5c18.3-5.4,27.8-7.3,42.2-8.8c11-1.1,16.9-1.6,23.3-2l5.1-0.4l0.6-5.3
						c0.3-2.2,0.1-4.4-0.1-6.2c-0.6-6.2-2.9-11.9-7.1-17.1l-2.3-2.8l-3.5,0.6c-15.5,2.7-30.8,6.4-47.5,11.4
						c1.5-9.2,4.9-24,10.1-41.5c1.4-0.4,2.8-0.7,4.2-1.1c6.6-1.8,13.6-3.7,19.8-4.3c4-0.4,7.3-0.5,10.2-0.3l5.1,0.4l1.3-5.2
						c0.7-2.6,0.7-5.8,0.5-7.8v0c-1.1-11.1-8.8-17.6-19.6-16.5c-2.9,0.4-6.8,1-11.2,1.9c4.7-14.6,7.2-21.8,8.9-25.8
						c8.3-2.1,16.8-4.3,27.5-5.3c2.7-0.3,6.4-0.5,13.7-0.6l8.4,0l-2.5-8.4c-5.6-18.8-15.5-19.9-19.4-19.4l-0.1,0
						c-2.9,0.3-7.1,1.2-12.9,2.4c-10.4,2.2-26.1,5.6-44.1,7.3c-6.8,0.7-9.8,0.8-13.7,0.6l-4.9-0.3l-1.4,4.9
						c-0.7,2.4-1.2,6.4-0.9,9.3c0.7,7.6,5.7,13.3,12.9,15.2c-1.2,9.3-3,17-6.4,30.1c-9.8,3.7-12.4,5.3-13.9,7.3l-2.6,3.3l1.8,3.8
						c1.9,3.8,4.9,6.9,8.7,8.9c-7.5,28.7-11.9,42.7-14.2,49.4l-1.2,3.3l2.1,2.8C550.3,326.9,557.1,332.5,563.5,334.5 M647.9,237.3
						c-4.6,18.7-9.8,43.9-8.5,57.7c0.5,5,2.2,17,8.2,20.3c0.6,0.4,2.3,1.8,2.5,2.1c2.4,4.3,7.6,5.9,11.8,6l8.5,0.1l-2.5-8.5
						c-0.1-0.5-0.1-1.2-0.3-3l-0.1-0.7c-1.3-14,1.6-36.7,8.1-64c7.8-32.3,17.9-56.7,32.9-79.3l2.6-4l-2.9-3.8
						c-3.5-4.6-17.6-10.9-24.1-11.5l-3.7-0.3l-2,3.2C668.1,167.8,658.4,195.1,647.9,237.3L647.9,237.3z M426.1,531
						c-6.2-65.6-0.1-167,20.5-216.3l1-2.4l-0.9-2.5c-3.9-10.4-42.2-21.2-53.8-20l-2,0.2l-1.5,1.4c-22.6,20.9-60.9,93.4-86.7,160.8
						c5.7-53.1,16.3-105.8,23.2-125.4l0.8-2.3l-0.8-2.3c-3.8-10.4-42.1-21.2-53.8-20l-1.6,0.2l-1.3,1c-28.7,21.3-54.3,73.6-84,145.7
						c-27.3,66.2-40.4,108-38.8,124.2c1.3,14.2,13.5,19.4,34,23.5l7.4,1.5l0-7.9c-0.2-65.2,43.9-171.4,73.3-216.8
						c-0.3,2-0.5,3.8-0.8,5.4c-9.6,61.8-11.9,117.3-7,169.8c0.6,6.3,1.2,12.9,2.2,19.3l0.2,1.1l0.5,1c4.9,9.6,32.3,15.5,43.7,14.3
						l0.1,0c2.6-0.3,3.8-0.4,5.6-1.2l3.8-1.8l-0.1-4.3c-1.9-72.1,42.4-185.1,73.5-223.2c-0.5,5-1.1,9.5-1.6,12.6
						c-9.6,61.8-11.9,117.2-7,169.5c0.6,6.4,1.2,13.1,2.2,19.6l0.3,1.7l1,1.4c7.7,10,34.7,13.8,46.9,12.6l6.5-0.7l-1-6.8
						C428.1,552.1,427,541.4,426.1,531 M555,455l-3.5-3.6c-1.8-1.8-3.5-3.4-6-5.1l-4.9-3.6l-3.6,4.9c-8.8,12.1-25.3,34.6-43,36.5
						c-1.5,0.2-3.2,0.1-5.1-3.5c-1.5-2.9-2.6-7.3-3.1-12.5c-0.1-1-0.1-2.1-0.2-3.1c43.9-24.3,67.2-47.7,65.5-97.4l-0.1-2.5l-1.6-1.8
						c-9.5-10.2-19.4-15.6-29.6-16l-0.8,0l-0.1,0c-19.2,2-38.8,17.4-53.9,42.1c-14.6,23.9-21.9,52.3-19.7,76
						c2.5,27.1,22.9,45.6,50.6,45.9l1,0l1-0.3c18.6-6.4,39.5-26.2,54.5-51.8L555,455z M519.9,389.4c-2.7,15.6-13.2,31.6-29.8,45.5
						C496.5,413.1,508.4,396.7,519.9,389.4 M634.5,430c25.9-33.5,42.1-63.2,44.7-81.9l0.3-2.1l-0.9-1.8
						c-4.6-9.3-19.7-11.3-24.2-11.7l-4.8-0.4l-1.5,4.8c-8.3,26-16.6,45.4-26.8,62.3c-4-11.7-6.4-22.8-7.5-34.2
						c-0.5-5.5-0.7-7.6-0.6-11.3l0.2-5.4l-5-1.2c-9.1-2.2-24.5-3.9-33-3.1l-0.1,0c-11.6,1.2-10.7,10.7-10.4,14.3
						c1.5,16.1,14.4,51.9,28.6,80c-12.5,17-35.8,38.1-48.2,46.9l-3.2,2.3l0.6,4c1.2,8.7,6.6,14.9,13.7,15.7l2.4,0.3l2-1.5
						c14.2-10.8,30.5-26,45.5-42.4c6.8,12,14.8,23.1,22.2,30.5l2.3,2.3l3.1-0.5c9.4-1.7,21-8.2,25.3-17.4l1.5-3.3l-1.9-3.1
						C650.2,458.9,641,443.8,634.5,430 M718.4,269.2c-3.7,13.7-5.9,33.7-5.2,41.1c0.3,3.2,1.6,7.4,3.9,10.7c-0.1,1.5-0.1,2.7,0,3.8
						c0.6,6.3,7.2,12.1,14.6,12.8l4.8,0.5l1.6-4.8c1.7-5.2,18.5-31.9,26.2-41.2l3.5-4.1l-3.3-4.2c-7.6-9.7-30-20.2-40.7-19.1
						l-4.2,0.4L718.4,269.2z M743.7,366.3l-3-3.9c-9.3-11.9-24-17.7-31.5-18.7l-2.2-0.3l-1.9,1.2c-18.8,12.4-23.9,46.8-24.7,53.6
						l0,0.1c-3.8,34.7-4.9,49.7-4.2,57.2c0.7,7.9,4.5,14.9,10.7,20.3c6.2,5.3,14.6,8.4,18.6,8l0,0c2-0.2,3.7-1.2,4.9-2.7
						c2.4-3,2.1-6.5,1.4-13.8c-0.5-7.5,2.5-20.1,5.1-30.2c1.3-4.8,2.4-9.5,3.5-14c5-20.2,9-36.2,20.5-52.7L743.7,366.3z
						 M811.2,374.7l-3.6,4.2l3.5,4.3c4.8,6,12.1,9.4,18.5,8.8l0.1,0c7.1-0.7,13.8-6.5,18.3-15.9c4-8.4,5.8-18.7,4.9-28.3
						c-2.1-22.1-16.8-33.9-39.3-31.6l-0.2,0c-42.3,4.5-78,53.5-73.5,101c3.2,33.6,28.2,60.7,55.7,60.5l0.8,0l0.8-0.2
						c13.8-4.1,36-23.8,47.5-42.2l1.2-1.9l-0.2-2.3c-0.3-3.7-3-8.2-6.1-10.3l-4-2.7l-3.5,3.3c-15.3,14.5-31.7,24.7-40.7,27.7
						c-3.5-2.6-6-9.8-7-20.7c-2.2-23,3.7-45.2,16.9-64.1c9.3-13.2,19.6-20,23.4-20.7c0,0,0.4,0.5,0.5,2.2
						C825.8,353.3,821,363.3,811.2,374.7 M960,425.1c-1.7-18.3,4.8-52,16.7-85.8l0.4-1.2l0-1.2c0-1.7-0.6-4.3-3.3-6.8
						c-5-4.6-17.1-8.3-24.9-7.5l-3.9,0.4l-1.3,3.8c-0.1,0.3-0.2,0.5-0.3,0.8c-6-8.3-16.9-16.3-24-17.5l-0.9-0.2l-1,0.2
						c-33,5.3-69.4,71.4-65.1,117.9c2.2,23.6,15.7,39.4,32.8,38.4l0.6,0l0.6-0.2c11.6-3.2,24.6-16.5,35.8-35.2c0,1,0.1,2,0.2,2.9
						c2.3,24.2,15.8,26.4,23.7,25.6c6.6-0.6,15.6-4.3,20.6-8.4l8.3-6.7l-9.7-4.4C962.8,439,960.7,433.4,960,425.1 M922,381.7
						c-5.1,11.3-19.8,43.7-31.7,52.4c-2.3-29.7,22.6-75.4,46.3-88C931.6,359.1,926.2,372.2,922,381.7 M1130.3,328.5
						c1-0.8,3.8-2.9,3.5-6.9l-0.1-1.6l-0.9-1.4c-7.2-11.5-17-17.5-26.9-16.5l-0.1,0c-19.1,2-40,28.2-58.1,52.6c-1.3,1.7-3,4.1-5,7.1
						c0.2-0.5,0.4-0.9,0.6-1.4c6.1-13.5,11.9-26.2,14.6-35.7l0.7-2.3l-0.9-2.2c-6-14.6-18.3-26.6-30-29.1l-2.3-0.5l-2,1.2
						c-6.7,4.1-19.3,35.1-27.7,62.1c-9.4,30.2-15.3,65.1-13.8,81.3l0.2,1.3c3.8,13,9.8,21.3,18.2,25.2l3.2,1.5l2.9-2.1
						c5.1-3.7,9.7-12,18.1-27.3c12.5-22.4,23.7-39.1,38.8-57.7c1.5-1.9,3-3.6,4.5-5.1c-5,18.9-5.6,28.2-4.9,36.4
						c1.1,11.3,3.8,19.2,8.8,24.9c6.1,7.1,15.3,10.1,27.2,8.8h0.1c8.7-0.9,21.2-10.2,26.6-16.4l1.9-2.1l-0.3-2.9
						c-0.3-3.3-2.5-8.7-6.5-10.7l-1.6-0.8l-1.7,0.2c-2.1,0.2-4.1,1.2-6.3,2.2c-1.6,0.7-3.8,1.8-5,1.9h0c-0.1,0-0.2,0-0.3,0
						c-0.2-0.7-0.6-2.1-0.9-4.8c-2.1-22,12.6-60.6,20.5-74C1127.6,330.5,1129.3,329.2,1130.3,328.5 M1243.9,302.6
						c-4.1-6.1-10.1-9-17.4-8.2c-0.6,0.1-1.1,0.1-1.6,0.2c-6.6-8.9-13.3-15-19.8-17.7l-1.4-0.6l-1.5,0.2l-0.1,0
						c-10,1.1-20.7,6.7-30.8,16.4c-25.6,24-41.9,65.3-38.8,98.2c2.7,29.2,20.9,48.9,45.1,49.1l1,0l0.9-0.3
						c45.9-15.2,75.7-63.2,70.9-114C1249.5,315.4,1247.3,307.8,1243.9,302.6 M1176.6,414.6c-1.5-2.4-3.5-7.3-4.1-13.1
						c-1.3-14,5.8-39.6,16-56.9c5.6-9.4,14.7-21.5,27.4-28.6c0.9,2.7,1.5,6.3,1.9,11.1C1221.6,367.1,1204.4,403.1,1176.6,414.6"/>
				</g>
			</g>
		</g>
	</g>
	<g>
		<g>
			<polygon class="st7" points="1248.8,223.3 1253.4,241.9 1258,241.9 1262.7,223.3 1262.8,241.9 1267.2,241.9 1267.2,218.3 
				1260,218.3 1255.7,234.4 1251.5,218.3 1244.3,218.3 1244.3,241.9 1248.7,241.9 			"/>
		</g>
		<g>
			<path class="st7" d="M1290.2,237.1c-1.1-1.8-2-3.1-2.7-3.8c-0.7-0.7-1.5-1.4-2.5-2c2.1-0.3,3.6-1,4.6-2.2c1-1.2,1.5-2.6,1.5-4.4
				c0-1.4-0.3-2.6-1-3.7c-0.7-1.1-1.6-1.9-2.7-2.3c-1.2-0.4-3-0.6-5.5-0.6h-10v23.7h4.8v-9.9h1c1.1,0,1.9,0.1,2.4,0.3
				c0.5,0.2,1,0.5,1.4,1c0.4,0.5,1.3,1.6,2.5,3.4l3.4,5.2h5.6L1290.2,237.1z M1280.2,228.1h-3.5v-6h3.7c1.9,0,3.1,0,3.5,0.1
				c0.8,0.1,1.4,0.4,1.8,0.9c0.4,0.5,0.6,1.1,0.6,1.9c0,0.7-0.2,1.3-0.5,1.8c-0.3,0.5-0.8,0.8-1.3,1
				C1283.8,228,1282.5,228.1,1280.2,228.1z"/>
		</g>
	</g>
	<g>
		<path class="st1" d="M598.3,216.6c0.2,1.8,0,4.1-0.3,5.5c-2.9-0.2-6.4-0.2-11.3,0.3c-9.5,1-19.6,4.3-28.3,6.5
			c-7.9,25.9-12.6,49-12.3,55.9c17.7-5.7,35.7-10.6,55.7-14c2.9,3.6,5.2,8.1,5.7,13.6c0.1,1.4,0.3,3.1,0.1,4.8
			c-6.2,0.5-12.3,0.9-23.5,2.1c-14.9,1.5-24.7,3.6-43.3,9c-5.2-1.6-10.9-6.5-16.4-13.9c3.1-8.8,8.2-26.1,15.9-55.7
			c-5-1.1-8.8-3.9-10.7-7.7c1.1-1.3,6.8-3.7,14.3-6.4c4.8-18.7,6.8-27,8.2-40.8c-7.7,0.4-13-3.6-13.6-10.1c-0.2-1.8,0.2-5,0.7-6.8
			c4.4,0.3,8,0.1,14.7-0.6c28-2.9,49.6-9,57.1-9.8c5.2-0.5,9.9,5,12.9,14.9c-6.9,0-11,0.3-14.3,0.6c-12.2,1.3-22.1,3.9-31.2,6.2
			c-2.3,4.5-5.1,12.6-14,40.3c8.3-2.3,16.2-4,21.2-4.5C592.8,205.2,597.6,209.1,598.3,216.6"/>
		<path class="st1" d="M629.4,210.8c10.1-40.6,19.6-68,29.8-83.8c5.5,0.5,17.7,6.3,19.8,9.1c-15.4,23.3-25.7,48.3-33.8,81.4
			c-6.8,28.3-9.7,51.6-8.3,66.2c0.4,4,0.4,4.2,0.6,5.1c-3,0-5.7-1.2-6.5-2.7c-0.6-1.2-3.4-3.7-5-4.6c-2.2-1.2-4.3-7.7-5-15.2
			C620.1,256.1,623.2,236.2,629.4,210.8"/>
		<path class="st1" d="M274.5,549.9c-11.8,1.2-34.9-5.5-37.6-10.9c-0.9-6.3-1.5-12.9-2.1-19.2c-4.6-49.2-3-103.7,7-167.8
			c1-6.2,2.3-16.7,3.1-27.8c-27.8,28-88.2,160.4-88,238.2c-20.9-4.2-28.1-8.9-29-17.8c-1.5-16,13.8-61.5,38.3-121
			c27.9-68,54-122.3,81.9-143c11.8-1.2,45.3,10.1,47.4,15.9c-9.1,25.8-24.7,109.2-27.1,175.3c22.7-76.2,74-179.1,100.6-203.6
			c11.8-1.2,45.3,10.1,47.4,15.9c-22.3,53.3-26.9,157.4-21,219.6c1,10.3,2,21.3,3.8,33.2c-11.8,1.2-35.9-3-41.4-10.2
			c-0.9-6.3-1.5-12.9-2.1-19.2c-4.6-49.2-3-103.7,7-167.8c1-6.5,2.2-18,3.3-29.9c-34.2,22-89.6,159.9-87.5,239.5
			C277.4,549.6,277.1,549.7,274.5,549.9"/>
		<path class="st1" d="M454.7,433.1c0.2,2.3,0.2,4.9,0.4,7.5c0.9,9.8,4.4,22.9,14.9,21.8c19.9-2,37-24.8,47.4-39
			c2.1,1.5,3.6,2.8,5.2,4.4c-14.4,24.5-34.2,43.2-51.2,49c-25.7-0.3-42.3-16.9-44.5-40c-4.5-47.4,31.7-107.4,68.2-111.1
			c8.4,0.3,16.9,5,25.3,14C522.1,387.4,499.8,408.7,454.7,433.1 M455.9,421.9c27.8-18.3,47.4-44.2,46.3-70.7
			C482.3,356.2,461.4,385.2,455.9,421.9"/>
		<path class="st1" d="M608,461.4c-6.8-6.9-16.7-19.9-25.2-36.8c-17.1,19.5-35.3,36.6-50.4,48c-4-0.5-7.4-4.2-8.2-10.2
			c13.8-9.9,39.8-33.6,52-51.7c-15.3-29.3-28.3-66.2-29.7-81.2c-0.5-5.2,0.2-6.7,4.9-7.2c7.7-0.8,22.4,0.9,31,2.9
			c-0.2,4.1,0,6.4,0.6,12.2c1.4,15,5.1,30.1,12.3,47.4c13.5-19.8,23.7-41.8,34-74.1c9.3,0.8,17.1,4.1,19.2,8.2
			c-2.5,18-19.7,48.7-45.8,82c6.4,14.2,15.6,29.9,26.2,46.6C625.5,454.6,615.7,460,608,461.4"/>
		<path class="st1" d="M662,371c0.9-7.7,6.1-38.5,21.9-48.9c6.2,0.8,19.3,5.9,27.5,16.4c-15,21.4-18,42.4-25,68.8
			c-2.9,11.1-5.8,23.9-5.3,32.3c0.7,6.9,0.9,9.5-0.8,9.7c-2.8,0.3-20.9-5.4-22.5-22.5C657.2,420.2,658.1,406.4,662,371 M699.1,290.8
			c-2.1-1.8-3.9-6-4.2-9.2c-0.6-6.6,1.5-25.8,5-38.7c8.6-0.9,29,8.7,35.3,16.8c-7.5,8.9-25.3,36.7-27.4,43.4c-4.5-0.4-8.7-3.8-9-6.9
			C698.6,294.9,698.7,293.1,699.1,290.8"/>
		<path class="st1" d="M789.5,294.6c19.1-2,30.8,7.3,32.6,25.8c1.7,17.6-7.2,36-17.7,37.1c-4.4,0.4-9.7-2.2-13.2-6.5
			c11.3-13.1,16.4-24.4,15.5-34c-0.5-5.5-3-8.1-7.1-7.7c-7.2,0.7-18.9,10.1-28,23c-14,20.1-20.4,44.1-18.1,68.6
			c1.5,15.6,5.7,24.5,12.6,27c10.6-2.6,29.6-14.7,45.5-29.7c1.5,1,3.1,3.8,3.3,5.5c-10.7,17.1-31.8,35.9-44,39.5
			c-24.5,0.2-46.7-24.3-49.5-54.7C717.3,344.9,750.9,298.6,789.5,294.6"/>
		<path class="st1" d="M946.3,309.1c-11.9,33.9-18.9,69-17,88.6c1,10.7,3.9,18,9.2,20.3c-4.2,3.3-12,6.5-17.5,7
			c-10,1-15.6-5.4-16.9-19.8c-1-10.7,1.1-26.6,6.3-46.1c-11.6,36.8-33.2,68.1-50.1,72.8c-13.6,0.8-24.3-12.6-26.2-32.6
			c-4.1-43,30.2-106,59.9-110.8c7.7,1.3,21.4,13.5,22.9,20.7c-29.1,8-60.5,62.8-57.1,98.3c0.4,4,2,5.9,4.5,6.5
			c10.6-3.4,22.3-21,38.9-57.7c6.5-14.4,15.5-37.2,21.9-55.3C932.6,300.3,946.2,305.3,946.3,309.1"/>
		<path class="st1" d="M1027.5,294.9c-6.3,21.9-31.4,65.9-32,83.8c10.4-14.2,26.9-40.4,32.6-48c12.6-17,35.9-48.3,53.9-50.2
			c9.4-1,16.8,6.7,21.1,13.6c0.1,0.9-2.9,1.5-7.3,8c-8.7,14.6-23.9,54.6-21.6,78.3c0.9,9.5,3.5,11,8,10.5c3.9-0.4,8.8-3.8,11.3-4.1
			c1.5,0.7,2.9,3.8,3,5.5c-5,5.8-16.3,13.6-22.7,14.3c-21.3,2.2-27.5-10.9-29.1-27.9c-0.9-9.5,0.5-21.6,10.3-53.5
			c-0.8,0.1-11.1,6.7-20.8,18.7c-15.5,19.1-27,36.3-39.4,58.6c-6.9,12.7-12.1,22.2-16.3,25.3c-8.2-3.8-12.4-12.7-14.8-21.2
			c-1.3-14.4,3.9-47.6,13.5-78.7c10.9-35.2,22-56.8,24.9-58.5C1011.9,271.7,1022.5,282.6,1027.5,294.9"/>
		<path class="st1" d="M1114.2,362.3c-2.9-30.9,12.6-70.1,36.7-92.7c9.2-8.8,18.8-13.9,27.3-14.8c6.1,2.6,12.9,9.2,19.3,18.7
			c1.7-0.2,3.3-0.6,5-0.8c9.9-1,15.5,7.2,17.2,25.6c4.6,48.2-23.3,92.8-66.6,107.1C1131.9,405.4,1116.7,388.3,1114.2,362.3
			 M1141.8,374.1c0.9,9.2,5.4,19,9.1,19.8c32.2-10.9,52.7-50.3,48.5-95.4c-0.9-9.8-2.5-15.2-5.4-19c-15.6,6.6-27.4,20.3-35.3,33.7
			C1147.6,332.1,1140.4,358.8,1141.8,374.1"/>
	</g>
	<g>
		<path class="st7" d="M168.6,190.5c-0.1,0.2-2.5,0-3.4,0.1c-9.4,1.4-15.2,18-12.1,31.1c1.4,5.7,4,8.1,7.5,7.6
			c3.4-0.5,7.4-4,9.7-8.8c3.4-6.8,3.9-17.1,1.8-26c-0.8-3.5-1.7-5.3-1.7-5.3c0.1-0.2,4.8,1.5,6.3,7.6c2.5,10.1,0,20.6-5,27.4
			c-3.2,4.4-7.8,7.4-12.2,8c-6.5,0.9-11.1-3-13.1-11.2c-3.2-13.4,1.6-33.5,11.8-34.9c1.1-0.2,2.1-0.1,3.3,0.2
			C164.3,187.2,168.7,190.5,168.6,190.5"/>
		<path class="st7" d="M184.3,202.2c0.5-2.3,1-4.2,1.5-4.5c0.9-0.5,5.7,1.6,5.7,2.1c0.2,1-2.7,10.2-2.7,10.2c0.2,0.1,5-8.1,7-11.3
			c0.1-0.2,0.5-0.3,1-0.4c1-0.1,2.4,0.3,2.5,0.7c0.3,1-0.3,3.5,0.1,5.3c0.3,1.6,1.2,2.9,1.4,3.5c0.1,0.3-1,3.1-1.5,3.2
			c-0.9,0.3-4.9-4.5-5.2-4.5c-1.6-0.3-5.5,18-7.2,19.8c-0.3,0.3-4.7-1.6-4.9-2.5C181.1,220.6,183,208.6,184.3,202.2"/>
		<path class="st7" d="M197,238.3c0.9-0.1,2.6,1.6,4.1,1.5c7.4-0.5,13.3-23.4,13.3-23.4c-0.1,0-4.9,5.4-6.2,5.7
			c-1.8,0.3-4.9-3.2-5.4-6.6c-1.4-8.4,6.5-19.9,13.9-20.6c2.4-0.2,4.7,3.1,4.7,3.1c0,0-1-0.2-1.5-0.2c-5,0.4-13.3,14.7-12.1,21.4
			c0.1,0.5,0.2,0.5,0.3,0.5c1.2-0.1,4.2-3.5,6.3-6.7c2.4-3.7,3.9-11.8,5-12.8c0.5-0.5,4.1,0.6,4.2,0.9c0.9,2.6-2,9.6-2.5,12.6
			c-1.9,10.8-3.2,17.6-7.3,23.8c-2,3-5.5,4.8-8.1,5c-3.5,0.3-8.4-1.4-9.1-3.2C196.4,239.2,196.9,238.3,197,238.3"/>
		<path class="st7" d="M239.9,214.3c-0.1-0.8,0-1.9,0-2c-0.1-0.1-3.5,5.9-4.5,7.3c-0.7,1-1.6,1.8-2,1.8c-2.1,0.2-5.8-1.6-6.4-3.9
			c-0.5-1.7-0.4-3.1-0.3-4.6c0.4-5.5,3.7-17.1,6.9-18.5c0.8-0.3,4.9,0.9,4.9,1.4c0,0.3-2.8,5.1-4.9,12.9c-0.4,1.7-1.3,6.7-1,8.6
			c0.1,0.5,0.5,1,0.5,1c0.5,0.1,2.2-2.4,4.5-6.6c1.1-2.1,3.2-5.6,3.9-8.8c0.4-1.8,1.3-6.7,3-7.5c1-0.5,5.1,0.9,5.2,1.4
			c0.9,3.3-4.7,12.9-3.8,18.6c0.5,3.1,1.8,4.2,2,4.9c0,0.2-0.2,0.2-0.2,0.2c-1,0.1-3.7-0.7-5.4-1.8
			C240.7,217.7,240.1,215.6,239.9,214.3"/>
		<path class="st7" d="M255.5,198.8c2.7-12.4,6.2-24.3,8.5-25.4c0.7-0.3,6.2,2.6,6.2,3.1c0.1,3.4-7.4,14.5-9.6,24.6
			c-1.8,8.6-2.4,15.7-1.8,20.3c0.2,1.3,0.3,1.6,0.3,1.6c-0.1,0.1-1.8-0.5-2.1-0.9c-0.2-0.4-1.1-1.2-1.7-1.5
			c-0.7-0.4-1.5-2.4-1.8-4.8C253.1,212.6,253.8,206.5,255.5,198.8"/>
		<path class="st7" d="M268,198.3c2.8-12.3,6.4-24.2,8.7-25.2c0.7-0.3,6.1,2.7,6.1,3.1c0.1,3.4-7.5,14.4-9.8,24.5
			c-1.9,8.6-2.6,15.7-2,20.3c0.2,1.2,0.3,1.6,0.3,1.6c-0.1,0.1-1.8-0.5-2.1-0.9c-0.2-0.4-1.1-1.2-1.6-1.5c-0.7-0.4-1.4-2.4-1.7-4.8
			C265.4,212.1,266.2,206,268,198.3"/>
		<path class="st7" d="M277.2,211.4c-0.6-5.8,2.3-12.9,6.8-16.8c1.7-1.5,3.9-2.6,5.1-2.4c1,0.2,2.7,3.2,3.7,3.7
			c0.1,0.1,0.6-0.1,0.9-0.1c1.9-0.1,3,1.5,3.4,5c1.1,9-5.1,18.5-12.3,19.1C281.4,220.3,277.7,216.2,277.2,211.4 M282.5,213.9
			c0.2,1.7,1.3,3.8,1.8,3.8c4.8,0,9.9-8.7,8.9-17.1c-0.2-1.9-0.8-3.5-1.1-3.6c-1.2-0.4-5.1,3.4-6.6,5.8
			C283.5,206.2,282.2,211.1,282.5,213.9"/>
		<path class="st7" d="M315.2,201.9c-0.4,0-0.7-0.3-0.8-0.8c-0.1-0.4,0.6-2.1,0.5-2.9c-0.1-1-0.7-1.8-1.4-1.7
			c-2.8,0.1-3.9,3.8-3.2,10.8c0,0.4,0.1,0.6,0.1,0.6c0.7,0.3,3.2-0.5,3.7-0.2c0,0,0.1,0.2,0.1,0.4c0,0.3-0.1,0.7-0.1,0.7
			c-1.9,1.3-3.4,1-3.3,1.8c0.1,0.5,0.2,1.1,0.3,1.9c0.7,6-2.8,10.5-8,10.7c-1.9,0.1-5-2.3-5.5-4.1c-1.1-4.6,8.9-9.7,9.8-10.8
			c0.6-0.8-2.3-6.8-2.6-9.8c-0.4-3.8,3.2-9,6-9c1.2,0,6.3,4.7,6.6,6.1C317.8,197.9,316.2,202,315.2,201.9 M307.9,211.1
			c-0.6-0.5-6.8,5.2-6.5,7.7c0.1,0.8,0.8,1.9,1.3,1.9C304.5,220.9,308.5,211.6,307.9,211.1"/>
		<path class="st7" d="M339.7,196.9c-0.8,5.2-3.5,12.5-3.1,16.2c0.2,2,1.8,3.9,1.8,3.9c0,0.1-2.3,1-3.3,1.1c-1.9,0.1-3-1.2-3.3-3.9
			c-0.2-2,1.2-8.5,1.2-8.5c0,0-6.6,12.5-9.5,12.7c-2.3,0.2-4.7-2.8-5-6.5c-0.7-8.1,6.7-20,11.4-19.6c1.2,0.1,4.5,3.9,4.3,4.2
			c-0.8,1.4-11.5,10.7-10.8,17.4c0.1,0.8,0.5,1.3,0.9,1.3c1.5,0.1,4.3-3.5,7.4-10.1c1.2-2.6,3-9.1,4.1-9.9
			C336.2,194.7,339.7,196.3,339.7,196.9"/>
		<path class="st7" d="M359.6,217.9c-0.6,0.2-3.4-2.2-3.5-3.7c-0.5-3.5,5.2-15.9,5.2-15.9c-0.1-0.2-6.9,6.7-10.4,12.4
			c-2.3,3.7-4.1,7.4-4.5,7.4c-1,0-2.8-3.1-3.1-4.9c-0.2-1.5,0.2-4.5,0.8-7.2c1.2-5.2,4.2-14.2,5.6-15c0.7-0.4,5,1.8,5.3,3
			c0.6,2.1-6.1,16.1-6.1,16.1c0.2,0.1,9.7-16.3,14.2-16.3c1.7,0,4.3,1.4,4.4,1.7c0.3,2-5.1,14-5.1,14c0.3,0.1,10.4-16.2,14.4-16.3
			c1.4,0,3.3,1,3.4,2.1c0.3,3-5.2,13-4.7,18.1c0.1,1.5,0.6,1.8,1.4,1.8c0.9,0,1.7-0.6,2-0.5c0.4,0.1,0.6,1,0.5,1.1
			c-0.3,0.9-2.6,2.1-4.4,2.1c-3.3,0.1-4.6-2.4-4.9-5.3c-0.5-4.9,3-12.7,3-12.8C372.6,199.4,361.4,217.4,359.6,217.9"/>
		<path class="st7" d="M388.4,210c-0.1,0.2,0,0.9,0.1,1.4c0.2,1.8,0.8,4.3,2.8,4.3c3.8,0,8.2-6.4,9-6.5c0.2,0,1,0.7,1,0.9
			c0.2,1.9-7,8.1-9.7,8.3c-4.1,0.3-8-3.8-8.4-8.2c-0.7-8.8,6.7-19.7,13-19.4c1.5,0.1,4.2,1.5,4.7,3C403,199.2,390.2,206.9,388.4,210
			 M388.3,207.4c0.5,0.4,9.5-11.8,8.8-12.3C392.1,191.8,388.3,207.4,388.3,207.4"/>
		<path class="st7" d="M416.3,195c0.1,2.7-6.1,14.9-6.1,14.9c0.2,0.1,5.1-7,6.2-8.3c2.4-2.9,6.8-8.4,10.1-8.4c1.8,0,3.6,1.7,3.9,2.8
			c0.1,0.1-0.6,0.2-1.4,1.4c-1.6,2.5-4.5,9.7-4.1,14.1c0.2,1.8,0.7,2.1,1.5,2.1c0.7,0,1.8-0.7,2.2-0.6c0.2,0.1,0.6,0.9,0.6,1.1
			c-0.3,0.7-3.1,2.3-4.3,2.3c-4.1,0.1-5.2-2.4-5.5-5.6c-0.2-1.8,2.2-9.3,2-9.7c0,0-2.1,1.1-3.9,3.1c-2.9,3.3-5.2,6.3-7.5,10.2
			c-1.3,2.2-2.7,4.4-3.1,4.4c-0.9,0-2.5-2.7-2.8-4.2c-0.4-2.4,0.9-8.7,2.7-14.3c2.1-6.3,4.4-10.3,4.8-10.4
			C412.8,189.8,416.2,193.4,416.3,195"/>
		<path class="st7" d="M434.8,195c-0.4-0.4-1.1-3-0.9-3.1c0.3-0.3,4.4,0.6,4.9,0.2c1.6-1.1,4.4-9.4,5.3-9.6c1-0.3,5.5,1.4,5.5,1.8
			c0.1,1.2-4.3,7.9-4.3,7.9c0.1,0.2,3.4-0.6,4.2-0.3c0.3,0.1,0.8,1.3,0.7,1.5c-0.3,0.6-5.2,0.6-6,1.2c-2.7,2-4.2,13.9-3.8,18.3
			c0.1,1.6,1,2.6,2,2.6c1.8,0,4.9-2.5,5.3-2.4c0.1,0,0.5,0.7,0.5,0.8c-0.1,0.8-4.2,4-5.3,4.1c-3.3,0.2-7.8-3-8-5.5
			c-0.3-3.5,1-10.8,3-17.4C436.6,195,436,195,434.8,195"/>
		<path class="st7" d="M456.1,208.8c-0.1,0.1,0,0.9,0.1,1.4c0.2,1.8,0.8,4.3,2.8,4.3c3.8,0,8.2-6.4,9-6.5c0.2,0,1,0.7,1,0.9
			c0.2,1.9-7,8.1-9.7,8.3c-4.1,0.3-8-3.8-8.4-8.2c-0.7-8.8,6.7-19.7,13-19.4c1.5,0.1,4.1,1.5,4.7,3
			C470.7,198,457.9,205.7,456.1,208.8 M456,206.2c0.5,0.4,9.5-11.8,8.8-12.3C459.9,190.6,456,206.2,456,206.2"/>
	</g>
</g>
</svg>
